<svg viewBox="0 0 600 400" xmlns="http://www.w3.org/2000/svg">
  <defs>
    <linearGradient id="bgGrad2" x1="0%" y1="0%" x2="0%" y2="100%">
      <stop offset="0%" style="stop-color:#1a1a1a"/>
      <stop offset="100%" style="stop-color:#2d2d2d"/>
    </linearGradient>
  </defs>
  
  <!-- Background -->
  <rect width="600" height="400" fill="url(#bgGrad2)"/>
  
  <!-- Grid Lines -->
  <g stroke="#333" stroke-width="0.5" opacity="0.5">
    <line x1="50" y1="50" x2="550" y2="50"/>
    <line x1="50" y1="100" x2="550" y2="100"/>
    <line x1="50" y1="150" x2="550" y2="150"/>
    <line x1="50" y1="200" x2="550" y2="200"/>
    <line x1="50" y1="250" x2="550" y2="250"/>
    <line x1="50" y1="300" x2="550" y2="300"/>
    <line x1="50" y1="350" x2="550" y2="350"/>
  </g>
  
  <!-- Trendlinie (Higher Lows verbunden) -->
  <line x1="60" y1="320" x2="520" y2="140" stroke="#daa520" stroke-width="2" stroke-dasharray="10,5"/>
  
  <!-- Higher Lows Markierungen -->
  <circle cx="100" cy="300" r="8" fill="none" stroke="#38a169" stroke-width="2"/>
  <text x="85" y="325" fill="#38a169" font-family="Inter, sans-serif" font-size="10" font-weight="600">HL1</text>
  
  <circle cx="200" cy="260" r="8" fill="none" stroke="#38a169" stroke-width="2"/>
  <text x="185" y="285" fill="#38a169" font-family="Inter, sans-serif" font-size="10" font-weight="600">HL2</text>
  
  <circle cx="320" cy="210" r="8" fill="none" stroke="#38a169" stroke-width="2"/>
  <text x="305" y="235" fill="#38a169" font-family="Inter, sans-serif" font-size="10" font-weight="600">HL3</text>
  
  <circle cx="440" cy="165" r="8" fill="none" stroke="#38a169" stroke-width="2"/>
  <text x="425" y="190" fill="#38a169" font-family="Inter, sans-serif" font-size="10" font-weight="600">HL4</text>
  
  <!-- Stop Loss Linien unter Higher Lows -->
  <line x1="300" y1="220" x2="370" y2="220" stroke="#e53e3e" stroke-width="2" stroke-dasharray="4,3"/>
  <text x="375" y="223" fill="#e53e3e" font-family="Inter, sans-serif" font-size="9">Stop nach HL3</text>
  
  <line x1="420" y1="175" x2="500" y2="175" stroke="#e53e3e" stroke-width="2" stroke-dasharray="4,3"/>
  <text x="505" y="178" fill="#e53e3e" font-family="Inter, sans-serif" font-size="9">Aktueller Stop</text>
  
  <!-- Kerzen im Aufwärtstrend -->
  <!-- Swing 1: Start -->
  <line x1="70" y1="310" x2="70" y2="340" stroke="#888" stroke-width="1"/>
  <rect x="63" y="315" width="14" height="20" fill="#38a169" rx="1"/>
  
  <line x1="90" y1="285" x2="90" y2="320" stroke="#888" stroke-width="1"/>
  <rect x="83" y="290" width="14" height="22" fill="#38a169" rx="1"/>
  
  <!-- Higher Low 1 -->
  <line x1="110" y1="290" x2="110" y2="315" stroke="#888" stroke-width="1"/>
  <rect x="103" y="295" width="14" height="15" fill="#e53e3e" rx="1"/>
  
  <!-- Swing 2 up -->
  <line x1="130" y1="265" x2="130" y2="300" stroke="#888" stroke-width="1"/>
  <rect x="123" y="270" width="14" height="22" fill="#38a169" rx="1"/>
  
  <line x1="150" y1="245" x2="150" y2="280" stroke="#888" stroke-width="1"/>
  <rect x="143" y="250" width="14" height="22" fill="#38a169" rx="1"/>
  
  <line x1="170" y1="225" x2="170" y2="260" stroke="#888" stroke-width="1"/>
  <rect x="163" y="230" width="14" height="22" fill="#38a169" rx="1"/>
  
  <!-- Higher Low 2 -->
  <line x1="190" y1="250" x2="190" y2="275" stroke="#888" stroke-width="1"/>
  <rect x="183" y="252" width="14" height="18" fill="#e53e3e" rx="1"/>
  
  <line x1="210" y1="248" x2="210" y2="270" stroke="#888" stroke-width="1"/>
  <rect x="203" y="250" width="14" height="15" fill="#e53e3e" rx="1"/>
  
  <!-- Swing 3 up -->
  <line x1="230" y1="220" x2="230" y2="255" stroke="#888" stroke-width="1"/>
  <rect x="223" y="225" width="14" height="22" fill="#38a169" rx="1"/>
  
  <line x1="250" y1="200" x2="250" y2="235" stroke="#888" stroke-width="1"/>
  <rect x="243" y="205" width="14" height="22" fill="#38a169" rx="1"/>
  
  <line x1="270" y1="175" x2="270" y2="215" stroke="#888" stroke-width="1"/>
  <rect x="263" y="180" width="14" height="25" fill="#38a169" rx="1"/>
  
  <line x1="290" y1="160" x2="290" y2="195" stroke="#888" stroke-width="1"/>
  <rect x="283" y="165" width="14" height="22" fill="#38a169" rx="1"/>
  
  <!-- Higher Low 3 -->
  <line x1="310" y1="195" x2="310" y2="220" stroke="#888" stroke-width="1"/>
  <rect x="303" y="200" width="14" height="15" fill="#e53e3e" rx="1"/>
  
  <line x1="330" y1="200" x2="330" y2="220" stroke="#888" stroke-width="1"/>
  <rect x="323" y="202" width="14" height="14" fill="#e53e3e" rx="1"/>
  
  <!-- Swing 4 up -->
  <line x1="350" y1="170" x2="350" y2="205" stroke="#888" stroke-width="1"/>
  <rect x="343" y="175" width="14" height="22" fill="#38a169" rx="1"/>
  
  <line x1="370" y1="150" x2="370" y2="185" stroke="#888" stroke-width="1"/>
  <rect x="363" y="155" width="14" height="22" fill="#38a169" rx="1"/>
  
  <line x1="390" y1="130" x2="390" y2="165" stroke="#888" stroke-width="1"/>
  <rect x="383" y="135" width="14" height="22" fill="#38a169" rx="1"/>
  
  <line x1="410" y1="115" x2="410" y2="150" stroke="#888" stroke-width="1"/>
  <rect x="403" y="120" width="14" height="22" fill="#38a169" rx="1"/>
  
  <!-- Higher Low 4 -->
  <line x1="430" y1="150" x2="430" y2="175" stroke="#888" stroke-width="1"/>
  <rect x="423" y="155" width="14" height="15" fill="#e53e3e" rx="1"/>
  
  <line x1="450" y1="155" x2="450" y2="175" stroke="#888" stroke-width="1"/>
  <rect x="443" y="158" width="14" height="12" fill="#e53e3e" rx="1"/>
  
  <!-- Continuation -->
  <line x1="470" y1="120" x2="470" y2="158" stroke="#888" stroke-width="1"/>
  <rect x="463" y="125" width="14" height="25" fill="#38a169" rx="1"/>
  
  <line x1="490" y1="100" x2="490" y2="140" stroke="#888" stroke-width="1"/>
  <rect x="483" y="105" width="14" height="28" fill="#38a169" rx="1"/>
  
  <line x1="510" y1="80" x2="510" y2="120" stroke="#888" stroke-width="1"/>
  <rect x="503" y="85" width="14" height="28" fill="#38a169" rx="1"/>
  
  <!-- Titel -->
  <text x="300" y="30" fill="#f4e97b" font-family="Inter, sans-serif" font-size="16" font-weight="700" text-anchor="middle">TREND STOP-LOSS: HIGHER LOWS</text>
  
  <!-- Erklärung Box -->
  <rect x="50" y="355" width="500" height="35" fill="rgba(218,165,32,0.1)" stroke="#daa520" stroke-width="1" rx="5"/>
  <text x="300" y="378" fill="#daa520" font-family="Inter, sans-serif" font-size="11" text-anchor="middle" font-weight="600">💡 Stop immer unter dem letzten Higher Low setzen → Trend ist intakt solange Higher Lows gehalten werden</text>
</svg>


