<svg viewBox="0 0 600 400" xmlns="http://www.w3.org/2000/svg">
  <defs>
    <linearGradient id="bgGrad3" x1="0%" y1="0%" x2="0%" y2="100%">
      <stop offset="0%" style="stop-color:#1a1a1a"/>
      <stop offset="100%" style="stop-color:#2d2d2d"/>
    </linearGradient>
  </defs>
  
  <!-- Background -->
  <rect width="600" height="400" fill="url(#bgGrad3)"/>
  
  <!-- Grid Lines -->
  <g stroke="#333" stroke-width="0.5" opacity="0.5">
    <line x1="50" y1="50" x2="550" y2="50"/>
    <line x1="50" y1="100" x2="550" y2="100"/>
    <line x1="50" y1="150" x2="550" y2="150"/>
    <line x1="50" y1="200" x2="550" y2="200"/>
    <line x1="50" y1="250" x2="550" y2="250"/>
    <line x1="50" y1="300" x2="550" y2="300"/>
    <line x1="50" y1="350" x2="550" y2="350"/>
  </g>
  
  <!-- 20 Day Moving Average Linie (Curved) -->
  <path d="M 60 290 Q 100 280, 140 260 Q 180 240, 220 220 Q 260 200, 300 180 Q 340 165, 380 155 Q 420 148, 460 145 Q 500 143, 540 142" 
        fill="none" stroke="#3b82f6" stroke-width="3"/>
  <text x="545" y="138" fill="#3b82f6" font-family="Inter, sans-serif" font-size="10" font-weight="600">20 MA</text>
  
  <!-- Kerzen die den MA "surfen" -->
  <!-- Kerze 1 -->
  <line x1="70" y1="265" x2="70" y2="305" stroke="#888" stroke-width="1"/>
  <rect x="63" y="270" width="14" height="28" fill="#38a169" rx="1"/>
  
  <!-- Kerze 2 -->
  <line x1="95" y1="250" x2="95" y2="290" stroke="#888" stroke-width="1"/>
  <rect x="88" y="255" width="14" height="28" fill="#38a169" rx="1"/>
  
  <!-- Kerze 3 - Touch MA -->
  <line x1="120" y1="240" x2="120" y2="275" stroke="#888" stroke-width="1"/>
  <rect x="113" y="245" width="14" height="22" fill="#38a169" rx="1"/>
  
  <!-- Kerze 4 - Bounce -->
  <line x1="145" y1="220" x2="145" y2="260" stroke="#888" stroke-width="1"/>
  <rect x="138" y="225" width="14" height="28" fill="#38a169" rx="1"/>
  
  <!-- Kerze 5 -->
  <line x1="170" y1="200" x2="170" y2="240" stroke="#888" stroke-width="1"/>
  <rect x="163" y="205" width="14" height="28" fill="#38a169" rx="1"/>
  
  <!-- Kerze 6 - kleine Korrektur -->
  <line x1="195" y1="210" x2="195" y2="240" stroke="#888" stroke-width="1"/>
  <rect x="188" y="218" width="14" height="18" fill="#e53e3e" rx="1"/>
  
  <!-- Kerze 7 - Touch MA wieder -->
  <line x1="220" y1="200" x2="220" y2="235" stroke="#888" stroke-width="1"/>
  <rect x="213" y="205" width="14" height="22" fill="#38a169" rx="1"/>
  
  <!-- Kerze 8 -->
  <line x1="245" y1="180" x2="245" y2="215" stroke="#888" stroke-width="1"/>
  <rect x="238" y="185" width="14" height="22" fill="#38a169" rx="1"/>
  
  <!-- Kerze 9 -->
  <line x1="270" y1="165" x2="270" y2="200" stroke="#888" stroke-width="1"/>
  <rect x="263" y="170" width="14" height="22" fill="#38a169" rx="1"/>
  
  <!-- Kerze 10 - kleine Korrektur -->
  <line x1="295" y1="170" x2="295" y2="195" stroke="#888" stroke-width="1"/>
  <rect x="288" y="175" width="14" height="15" fill="#e53e3e" rx="1"/>
  
  <!-- Kerze 11 - Bounce am MA -->
  <line x1="320" y1="155" x2="320" y2="185" stroke="#888" stroke-width="1"/>
  <rect x="313" y="160" width="14" height="20" fill="#38a169" rx="1"/>
  
  <!-- Kerze 12 -->
  <line x1="345" y1="140" x2="345" y2="175" stroke="#888" stroke-width="1"/>
  <rect x="338" y="145" width="14" height="22" fill="#38a169" rx="1"/>
  
  <!-- Kerze 13 -->
  <line x1="370" y1="125" x2="370" y2="160" stroke="#888" stroke-width="1"/>
  <rect x="363" y="130" width="14" height="22" fill="#38a169" rx="1"/>
  
  <!-- Kerze 14 - Pullback -->
  <line x1="395" y1="135" x2="395" y2="165" stroke="#888" stroke-width="1"/>
  <rect x="388" y="142" width="14" height="18" fill="#e53e3e" rx="1"/>
  
  <!-- Kerze 15 - nahe am MA -->
  <line x1="420" y1="130" x2="420" y2="158" stroke="#888" stroke-width="1"/>
  <rect x="413" y="135" width="14" height="18" fill="#38a169" rx="1"/>
  
  <!-- Kerze 16 -->
  <line x1="445" y1="115" x2="445" y2="150" stroke="#888" stroke-width="1"/>
  <rect x="438" y="120" width="14" height="22" fill="#38a169" rx="1"/>
  
  <!-- Kerze 17 -->
  <line x1="470" y1="105" x2="470" y2="140" stroke="#888" stroke-width="1"/>
  <rect x="463" y="110" width="14" height="22" fill="#38a169" rx="1"/>
  
  <!-- Kerze 18 -->
  <line x1="495" y1="95" x2="495" y2="130" stroke="#888" stroke-width="1"/>
  <rect x="488" y="100" width="14" height="22" fill="#38a169" rx="1"/>
  
  <!-- Kerze 19 -->
  <line x1="520" y1="85" x2="520" y2="120" stroke="#888" stroke-width="1"/>
  <rect x="513" y="90" width="14" height="22" fill="#38a169" rx="1"/>
  
  <!-- Bounce-Punkte markieren -->
  <circle cx="120" cy="262" r="12" fill="none" stroke="#daa520" stroke-width="2" stroke-dasharray="3,2"/>
  <circle cx="220" cy="222" r="12" fill="none" stroke="#daa520" stroke-width="2" stroke-dasharray="3,2"/>
  <circle cx="320" cy="180" r="12" fill="none" stroke="#daa520" stroke-width="2" stroke-dasharray="3,2"/>
  
  <!-- Titel -->
  <text x="300" y="30" fill="#f4e97b" font-family="Inter, sans-serif" font-size="16" font-weight="700" text-anchor="middle">MA SURFING: STOP BEI CLOSE UNTER 20 MA</text>
  
  <!-- Erklärung Pfeile -->
  <text x="120" y="320" fill="#daa520" font-family="Inter, sans-serif" font-size="10" text-anchor="middle" font-weight="600">Touch &amp; Bounce</text>
  <text x="220" y="265" fill="#daa520" font-family="Inter, sans-serif" font-size="10" text-anchor="middle" font-weight="600">Touch &amp; Bounce</text>
  <text x="320" y="225" fill="#daa520" font-family="Inter, sans-serif" font-size="10" text-anchor="middle" font-weight="600">Touch &amp; Bounce</text>
  
  <!-- Stop Loss Erklärung -->
  <rect x="50" y="345" width="500" height="45" fill="rgba(59,130,246,0.1)" stroke="#3b82f6" stroke-width="1" rx="5"/>
  <text x="300" y="365" fill="#3b82f6" font-family="Inter, sans-serif" font-size="11" text-anchor="middle" font-weight="600">📊 STOP-LOSS REGEL: Verkaufen wenn eine Kerze UNTER dem 20 MA schließt</text>
  <text x="300" y="382" fill="#888" font-family="Inter, sans-serif" font-size="10" text-anchor="middle">Solange der Preis über dem MA bleibt → Trend intakt → Position halten</text>
</svg>


